<mxfile host="app.diagrams.net" modified="2022-01-14T09:40:27.261Z" agent="5.0 (Windows NT 10.0; Win64; x64) AppleWebKit/537.36 (KHTML, like Gecko) Chrome/97.0.4692.71 Safari/537.36" etag="ltZI-TvCILhADo6XfzSO" version="16.2.6" type="github">
  <diagram id="p1VaJm9dE1Vxcm2Y2X1g" name="Page-1">
    <mxGraphModel dx="2891" dy="663" grid="1" gridSize="10" guides="1" tooltips="1" connect="1" arrows="1" fold="1" page="1" pageScale="1" pageWidth="827" pageHeight="1169" background="#F1FAEE" math="0" shadow="0">
      <root>
        <mxCell id="0" />
        <mxCell id="1" parent="0" />
        <mxCell id="NtnKku0HyVxLoSLJdXPD-306" value="" style="rounded=0;whiteSpace=wrap;html=1;fontSize=15;" vertex="1" parent="1">
          <mxGeometry x="2200" y="555" width="1340" height="885" as="geometry" />
        </mxCell>
        <mxCell id="NtnKku0HyVxLoSLJdXPD-211" value="" style="rounded=0;whiteSpace=wrap;html=1;fontSize=15;" vertex="1" parent="1">
          <mxGeometry x="630" y="567.5" width="1270" height="700" as="geometry" />
        </mxCell>
        <mxCell id="NtnKku0HyVxLoSLJdXPD-54" value="" style="rounded=0;whiteSpace=wrap;html=1;fontSize=15;" vertex="1" parent="1">
          <mxGeometry x="-795.87" y="540" width="1115.87" height="755" as="geometry" />
        </mxCell>
        <mxCell id="85etgImM21U0zFLn9ePR-4" value="" style="group" parent="1" vertex="1" connectable="0">
          <mxGeometry x="395" y="350" width="130" height="130" as="geometry" />
        </mxCell>
        <mxCell id="85etgImM21U0zFLn9ePR-2" value="" style="whiteSpace=wrap;html=1;aspect=fixed;rounded=0;sketch=0;fontColor=#1D3557;strokeColor=#457B9D;fillColor=#A8DADC;strokeWidth=3;" parent="85etgImM21U0zFLn9ePR-4" vertex="1">
          <mxGeometry width="130" height="130" as="geometry" />
        </mxCell>
        <mxCell id="85etgImM21U0zFLn9ePR-3" value="&lt;b&gt;&lt;font style=&quot;font-size: 15px&quot;&gt;home.jsp&lt;br&gt;(&amp;nbsp; /&amp;nbsp; )&lt;br&gt;&lt;/font&gt;&lt;/b&gt;" style="text;html=1;strokeColor=none;fillColor=none;align=center;verticalAlign=middle;whiteSpace=wrap;rounded=0;sketch=0;fontColor=#1D3557;" parent="85etgImM21U0zFLn9ePR-4" vertex="1">
          <mxGeometry x="25" y="30" width="80" height="70" as="geometry" />
        </mxCell>
        <mxCell id="85etgImM21U0zFLn9ePR-29" value="" style="rounded=0;whiteSpace=wrap;html=1;sketch=0;fontSize=15;fontColor=#1D3557;strokeColor=#457B9D;strokeWidth=1;fillColor=#FFFAF0;" parent="1" vertex="1">
          <mxGeometry x="-1470" y="970" width="230" height="580" as="geometry" />
        </mxCell>
        <mxCell id="85etgImM21U0zFLn9ePR-30" value="게시판관리" style="text;html=1;strokeColor=none;fillColor=none;align=center;verticalAlign=middle;whiteSpace=wrap;rounded=0;sketch=0;fontSize=15;fontColor=#1D3557;" parent="1" vertex="1">
          <mxGeometry x="-1330" y="1487.560975609756" width="80" height="42.4390243902439" as="geometry" />
        </mxCell>
        <mxCell id="85etgImM21U0zFLn9ePR-112" value="&lt;span style=&quot;color: rgba(0 , 0 , 0 , 0) ; font-family: monospace ; font-size: 0px&quot;&gt;%3CmxGraphModel%3E%3Croot%3E%3CmxCell%20id%3D%220%22%2F%3E%3CmxCell%20id%3D%221%22%20parent%3D%220%22%2F%3E%3CmxCell%20id%3D%222%22%20value%3D%22%26lt%3Bspan%20style%3D%26quot%3Bcolor%3A%20rgba(0%20%2C%200%20%2C%200%20%2C%200)%20%3B%20font-family%3A%20monospace%20%3B%20font-size%3A%200px%26quot%3B%26gt%3B%253CmxGraphModel%253E%253Croot%253E%253CmxCell%2520id%253D%25220%2522%252F%253E%253CmxCell%2520id%253D%25221%2522%2520parent%253D%25220%2522%252F%253E%253CmxCell%2520id%253D%25222%2522%2520value%253D%2522%2522%2520style%253D%2522rounded%253D1%253BwhiteSpace%253Dwrap%253Bhtml%253D1%253Bsketch%253D0%253BfontSize%253D20%253BfontColor%253D%25231D3557%253BstrokeColor%253D%2523457B9D%253BstrokeWidth%253D2%253BfillColor%253D%2523E8F0FC%253B%2522%2520vertex%253D%25221%2522%2520parent%253D%25221%2522%253E%253CmxGeometry%2520x%253D%2522370%2522%2520y%253D%2522860%2522%2520width%253D%2522144.13%2522%2520height%253D%252280%2522%2520as%253D%2522geometry%2522%252F%253E%253C%252FmxCell%253E%253CmxCell%2520id%253D%25223%2522%2520value%253D%2522%2526lt%253Bspan%2520style%253D%2526quot%253Bfont-size%253A%252013px%2526quot%253B%2526gt%253B%25EA%25B4%2580%25EB%25A6%25AC%25EC%259E%2590%2520%25EB%25A9%2594%25EC%259D%25B8%2520%25ED%258E%2598%25EC%259D%25B4%25EC%25A7%2580%2526lt%253Bbr%2526gt%253B%252Fadmin%252Fmain%2526lt%253Bbr%2526gt%253B%255BGET%255D%2526lt%253Bbr%2526gt%253B%2526lt%253B%252Fspan%2526gt%253B%2522%2520style%253D%2522text%253Bhtml%253D1%253BstrokeColor%253Dnone%253BfillColor%253Dnone%253Balign%253Dcenter%253BverticalAlign%253Dmiddle%253BwhiteSpace%253Dwrap%253Brounded%253D0%253Bsketch%253D0%253BfontSize%253D20%253BfontColor%253D%25231D3557%253BfontStyle%253D1%2522%2520vertex%253D%25221%2522%2520parent%253D%25221%2522%253E%253CmxGeometry%2520x%253D%2522374.79%2522%2520y%253D%2522880%2522%2520width%253D%2522134.56%2522%2520height%253D%252240%2522%2520as%253D%2522geometry%2522%252F%253E%253C%252FmxCell%253E%253C%252Froot%253E%253C%252FmxGraphModel%253E%26lt%3B%2Fspan%26gt%3B%22%20style%3D%22rounded%3D1%3BwhiteSpace%3Dwrap%3Bhtml%3D1%3Bsketch%3D0%3BfontSize%3D20%3BfontColor%3D%231D3557%3BstrokeColor%3D%23457B9D%3BstrokeWidth%3D2%3BfillColor%3D%23E8F0FC%3B%22%20vertex%3D%221%22%20parent%3D%221%22%3E%3CmxGeometry%20x%3D%22-347.06%22%20y%3D%221020%22%20width%3D%22184.13%22%20height%3D%2280%22%20as%3D%22geometry%22%2F%3E%3C%2FmxCell%3E%3C%2Froot%3E%3C%2FmxGraphModel%3E&lt;/span&gt;" style="rounded=1;whiteSpace=wrap;html=1;sketch=0;fontSize=20;fontColor=#1D3557;strokeColor=#457B9D;strokeWidth=2;fillColor=#E8F0FC;" parent="1" vertex="1">
          <mxGeometry x="-1477.5" y="590" width="184.13" height="80" as="geometry" />
        </mxCell>
        <mxCell id="3olxeyL_9Od-M3t4rNW_-1" value="&lt;span style=&quot;color: rgba(0 , 0 , 0 , 0) ; font-family: monospace ; font-size: 0px&quot;&gt;dㄹㅇㄹ&lt;/span&gt;" style="rounded=1;whiteSpace=wrap;html=1;sketch=0;fontSize=20;strokeColor=#d79b00;strokeWidth=2;fillColor=#ffe6cc;" parent="1" vertex="1">
          <mxGeometry x="-1490" y="470" width="209.13" height="80" as="geometry" />
        </mxCell>
        <mxCell id="NtnKku0HyVxLoSLJdXPD-1" value="" style="rounded=0;whiteSpace=wrap;html=1;sketch=0;fontSize=15;fontColor=#1D3557;strokeColor=#457B9D;strokeWidth=1;fillColor=#FFFAF0;" vertex="1" parent="1">
          <mxGeometry x="-1370" y="1260" width="230" height="580" as="geometry" />
        </mxCell>
        <mxCell id="NtnKku0HyVxLoSLJdXPD-6" value="&lt;span style=&quot;color: rgba(0 , 0 , 0 , 0) ; font-family: monospace ; font-size: 0px&quot;&gt;%3CmxGraphModel%3E%3Croot%3E%3CmxCell%20id%3D%220%22%2F%3E%3CmxCell%20id%3D%221%22%20parent%3D%220%22%2F%3E%3CmxCell%20id%3D%222%22%20value%3D%22%26lt%3Bspan%20style%3D%26quot%3Bcolor%3A%20rgba(0%20%2C%200%20%2C%200%20%2C%200)%20%3B%20font-family%3A%20monospace%20%3B%20font-size%3A%200px%26quot%3B%26gt%3B%253CmxGraphModel%253E%253Croot%253E%253CmxCell%2520id%253D%25220%2522%252F%253E%253CmxCell%2520id%253D%25221%2522%2520parent%253D%25220%2522%252F%253E%253CmxCell%2520id%253D%25222%2522%2520value%253D%2522%2522%2520style%253D%2522rounded%253D1%253BwhiteSpace%253Dwrap%253Bhtml%253D1%253Bsketch%253D0%253BfontSize%253D20%253BfontColor%253D%25231D3557%253BstrokeColor%253D%2523457B9D%253BstrokeWidth%253D2%253BfillColor%253D%2523E8F0FC%253B%2522%2520vertex%253D%25221%2522%2520parent%253D%25221%2522%253E%253CmxGeometry%2520x%253D%2522370%2522%2520y%253D%2522860%2522%2520width%253D%2522144.13%2522%2520height%253D%252280%2522%2520as%253D%2522geometry%2522%252F%253E%253C%252FmxCell%253E%253CmxCell%2520id%253D%25223%2522%2520value%253D%2522%2526lt%253Bspan%2520style%253D%2526quot%253Bfont-size%253A%252013px%2526quot%253B%2526gt%253B%25EA%25B4%2580%25EB%25A6%25AC%25EC%259E%2590%2520%25EB%25A9%2594%25EC%259D%25B8%2520%25ED%258E%2598%25EC%259D%25B4%25EC%25A7%2580%2526lt%253Bbr%2526gt%253B%252Fadmin%252Fmain%2526lt%253Bbr%2526gt%253B%255BGET%255D%2526lt%253Bbr%2526gt%253B%2526lt%253B%252Fspan%2526gt%253B%2522%2520style%253D%2522text%253Bhtml%253D1%253BstrokeColor%253Dnone%253BfillColor%253Dnone%253Balign%253Dcenter%253BverticalAlign%253Dmiddle%253BwhiteSpace%253Dwrap%253Brounded%253D0%253Bsketch%253D0%253BfontSize%253D20%253BfontColor%253D%25231D3557%253BfontStyle%253D1%2522%2520vertex%253D%25221%2522%2520parent%253D%25221%2522%253E%253CmxGeometry%2520x%253D%2522374.79%2522%2520y%253D%2522880%2522%2520width%253D%2522134.56%2522%2520height%253D%252240%2522%2520as%253D%2522geometry%2522%252F%253E%253C%252FmxCell%253E%253C%252Froot%253E%253C%252FmxGraphModel%253E%26lt%3B%2Fspan%26gt%3B%22%20style%3D%22rounded%3D1%3BwhiteSpace%3Dwrap%3Bhtml%3D1%3Bsketch%3D0%3BfontSize%3D20%3BfontColor%3D%231D3557%3BstrokeColor%3D%23457B9D%3BstrokeWidth%3D2%3BfillColor%3D%23E8F0FC%3B%22%20vertex%3D%221%22%20parent%3D%221%22%3E%3CmxGeometry%20x%3D%22-347.06%22%20y%3D%221020%22%20width%3D%22184.13%22%20height%3D%2280%22%20as%3D%22geometry%22%2F%3E%3C%2FmxCell%3E%3C%2Froot%3E%3C%2FmxGraphModel%3E&lt;/span&gt;" style="rounded=1;whiteSpace=wrap;html=1;sketch=0;fontSize=20;strokeColor=#d79b00;strokeWidth=2;fillColor=#ffe6cc;" vertex="1" parent="1">
          <mxGeometry x="-1477.5" y="700" width="184.13" height="80" as="geometry" />
        </mxCell>
        <mxCell id="NtnKku0HyVxLoSLJdXPD-7" value="&lt;span style=&quot;color: rgba(0 , 0 , 0 , 0) ; font-family: monospace ; font-size: 0px&quot;&gt;dㄹㅇㄹ&lt;/span&gt;" style="rounded=1;whiteSpace=wrap;html=1;sketch=0;fontSize=20;strokeColor=#6c8ebf;strokeWidth=2;fillColor=#dae8fc;" vertex="1" parent="1">
          <mxGeometry x="-1490" y="370" width="209.13" height="80" as="geometry" />
        </mxCell>
        <mxCell id="NtnKku0HyVxLoSLJdXPD-11" value="" style="edgeStyle=orthogonalEdgeStyle;rounded=1;orthogonalLoop=1;jettySize=auto;html=1;strokeColor=#7EA6E0;" edge="1" parent="1" source="85etgImM21U0zFLn9ePR-2">
          <mxGeometry relative="1" as="geometry">
            <mxPoint x="100.00000000000045" y="600" as="targetPoint" />
          </mxGeometry>
        </mxCell>
        <mxCell id="NtnKku0HyVxLoSLJdXPD-24" value="" style="edgeStyle=orthogonalEdgeStyle;rounded=1;orthogonalLoop=1;jettySize=auto;html=1;fontSize=15;strokeColor=#7EA6E0;" edge="1" parent="1" source="NtnKku0HyVxLoSLJdXPD-12" target="NtnKku0HyVxLoSLJdXPD-23">
          <mxGeometry relative="1" as="geometry">
            <Array as="points">
              <mxPoint x="102" y="840" />
            </Array>
          </mxGeometry>
        </mxCell>
        <mxCell id="NtnKku0HyVxLoSLJdXPD-41" value="MybabyNo&lt;br&gt;Model" style="edgeLabel;html=1;align=center;verticalAlign=middle;resizable=0;points=[];fontSize=15;" vertex="1" connectable="0" parent="NtnKku0HyVxLoSLJdXPD-24">
          <mxGeometry x="0.3855" y="1" relative="1" as="geometry">
            <mxPoint x="-20" as="offset" />
          </mxGeometry>
        </mxCell>
        <mxCell id="NtnKku0HyVxLoSLJdXPD-221" style="edgeStyle=orthogonalEdgeStyle;rounded=1;orthogonalLoop=1;jettySize=auto;html=1;entryX=1;entryY=0.5;entryDx=0;entryDy=0;fontSize=15;strokeColor=#7EA6E0;" edge="1" parent="1" source="NtnKku0HyVxLoSLJdXPD-12" target="NtnKku0HyVxLoSLJdXPD-220">
          <mxGeometry relative="1" as="geometry">
            <Array as="points">
              <mxPoint x="-19" y="638" />
            </Array>
          </mxGeometry>
        </mxCell>
        <mxCell id="NtnKku0HyVxLoSLJdXPD-12" value="&lt;span style=&quot;color: rgba(0 , 0 , 0 , 0) ; font-family: monospace ; font-size: 0px&quot;&gt;ㅇ&lt;/span&gt;" style="rounded=1;whiteSpace=wrap;html=1;sketch=0;fontSize=20;fontColor=#1D3557;strokeColor=#457B9D;strokeWidth=2;fillColor=#E8F0FC;" vertex="1" parent="1">
          <mxGeometry x="10" y="600" width="184.13" height="80" as="geometry" />
        </mxCell>
        <mxCell id="NtnKku0HyVxLoSLJdXPD-16" value="내새끼 목록 페이지&lt;br style=&quot;font-size: 15px&quot;&gt;/mybaby/&amp;nbsp; or&amp;nbsp; /mybaby/list&amp;nbsp;&lt;br style=&quot;font-size: 15px&quot;&gt;[REQUEST]" style="text;html=1;strokeColor=none;fillColor=none;align=center;verticalAlign=middle;whiteSpace=wrap;rounded=0;fontSize=15;" vertex="1" parent="1">
          <mxGeometry x="21.12" y="605" width="161.9" height="65" as="geometry" />
        </mxCell>
        <mxCell id="NtnKku0HyVxLoSLJdXPD-21" value="" style="edgeStyle=orthogonalEdgeStyle;rounded=1;orthogonalLoop=1;jettySize=auto;html=1;fontSize=15;strokeColor=#7EA6E0;" edge="1" parent="1" source="NtnKku0HyVxLoSLJdXPD-17" target="NtnKku0HyVxLoSLJdXPD-20">
          <mxGeometry relative="1" as="geometry" />
        </mxCell>
        <mxCell id="NtnKku0HyVxLoSLJdXPD-29" value="MybabyFileVO" style="edgeLabel;html=1;align=center;verticalAlign=middle;resizable=0;points=[];fontSize=15;" vertex="1" connectable="0" parent="NtnKku0HyVxLoSLJdXPD-21">
          <mxGeometry x="-0.2381" y="1" relative="1" as="geometry">
            <mxPoint x="-19" y="-1" as="offset" />
          </mxGeometry>
        </mxCell>
        <mxCell id="NtnKku0HyVxLoSLJdXPD-17" value="&lt;span style=&quot;color: rgba(0 , 0 , 0 , 0) ; font-family: monospace ; font-size: 0px&quot;&gt;df&lt;/span&gt;" style="rounded=1;whiteSpace=wrap;html=1;sketch=0;fontSize=20;fontColor=#1D3557;strokeColor=#457B9D;strokeWidth=2;fillColor=#E8F0FC;" vertex="1" parent="1">
          <mxGeometry x="-402" y="600" width="184.13" height="80" as="geometry" />
        </mxCell>
        <mxCell id="NtnKku0HyVxLoSLJdXPD-19" value="내새끼 작성 페이지&lt;br&gt;/mybaby/write&lt;br&gt;[GET]" style="text;html=1;strokeColor=none;fillColor=none;align=center;verticalAlign=middle;whiteSpace=wrap;rounded=0;fontSize=15;" vertex="1" parent="1">
          <mxGeometry x="-392" y="600" width="170" height="80" as="geometry" />
        </mxCell>
        <mxCell id="NtnKku0HyVxLoSLJdXPD-27" style="edgeStyle=orthogonalEdgeStyle;rounded=1;orthogonalLoop=1;jettySize=auto;html=1;entryX=0.5;entryY=0;entryDx=0;entryDy=0;fontSize=15;strokeColor=#FF9999;" edge="1" parent="1" source="NtnKku0HyVxLoSLJdXPD-20" target="NtnKku0HyVxLoSLJdXPD-25">
          <mxGeometry relative="1" as="geometry">
            <Array as="points">
              <mxPoint x="-506" y="750" />
              <mxPoint x="-165" y="750" />
            </Array>
          </mxGeometry>
        </mxCell>
        <mxCell id="NtnKku0HyVxLoSLJdXPD-28" value="MybabyNo" style="edgeLabel;html=1;align=center;verticalAlign=middle;resizable=0;points=[];fontSize=15;" vertex="1" connectable="0" parent="NtnKku0HyVxLoSLJdXPD-27">
          <mxGeometry x="-0.168" y="3" relative="1" as="geometry">
            <mxPoint x="54" as="offset" />
          </mxGeometry>
        </mxCell>
        <mxCell id="NtnKku0HyVxLoSLJdXPD-20" value="&lt;span style=&quot;color: rgba(0 , 0 , 0 , 0) ; font-family: monospace ; font-size: 0px&quot;&gt;df&lt;/span&gt;" style="rounded=1;whiteSpace=wrap;html=1;sketch=0;fontSize=20;strokeColor=#d79b00;strokeWidth=2;fillColor=#FFE6CC;" vertex="1" parent="1">
          <mxGeometry x="-740" y="600" width="184.13" height="80" as="geometry" />
        </mxCell>
        <mxCell id="NtnKku0HyVxLoSLJdXPD-22" value="내새끼 작성 처리&lt;br&gt;/mybaby/write&lt;br&gt;[POST]" style="text;html=1;strokeColor=none;fillColor=none;align=center;verticalAlign=middle;whiteSpace=wrap;rounded=0;fontSize=15;" vertex="1" parent="1">
          <mxGeometry x="-731.44" y="600" width="167" height="80" as="geometry" />
        </mxCell>
        <mxCell id="NtnKku0HyVxLoSLJdXPD-23" value="&lt;span style=&quot;color: rgba(0 , 0 , 0 , 0) ; font-family: monospace ; font-size: 0px&quot;&gt;ㅇ&lt;/span&gt;" style="rounded=1;whiteSpace=wrap;html=1;sketch=0;fontSize=20;fontColor=#1D3557;strokeColor=#457B9D;strokeWidth=2;fillColor=#E8F0FC;" vertex="1" parent="1">
          <mxGeometry x="-257.06" y="800" width="184.13" height="80" as="geometry" />
        </mxCell>
        <mxCell id="NtnKku0HyVxLoSLJdXPD-226" style="edgeStyle=orthogonalEdgeStyle;rounded=1;orthogonalLoop=1;jettySize=auto;html=1;entryX=0.576;entryY=-0.043;entryDx=0;entryDy=0;entryPerimeter=0;fontSize=15;strokeColor=#7EA6E0;" edge="1" parent="1" source="NtnKku0HyVxLoSLJdXPD-25" target="NtnKku0HyVxLoSLJdXPD-224">
          <mxGeometry relative="1" as="geometry">
            <Array as="points">
              <mxPoint x="-221" y="910" />
              <mxPoint x="-221" y="910" />
            </Array>
          </mxGeometry>
        </mxCell>
        <mxCell id="NtnKku0HyVxLoSLJdXPD-25" value="내새끼 상세 페이지&lt;br&gt;/mybaby/detail&lt;br&gt;[GET]" style="text;html=1;strokeColor=none;fillColor=none;align=center;verticalAlign=middle;whiteSpace=wrap;rounded=0;fontSize=15;" vertex="1" parent="1">
          <mxGeometry x="-249.99" y="800" width="170" height="80" as="geometry" />
        </mxCell>
        <mxCell id="NtnKku0HyVxLoSLJdXPD-34" value="" style="edgeStyle=orthogonalEdgeStyle;rounded=1;orthogonalLoop=1;jettySize=auto;html=1;fontSize=15;strokeColor=#FF9999;" edge="1" parent="1" source="NtnKku0HyVxLoSLJdXPD-30" target="NtnKku0HyVxLoSLJdXPD-33">
          <mxGeometry relative="1" as="geometry">
            <Array as="points">
              <mxPoint x="-506" y="1040" />
            </Array>
          </mxGeometry>
        </mxCell>
        <mxCell id="NtnKku0HyVxLoSLJdXPD-40" value="MybabyFileVO" style="edgeLabel;html=1;align=center;verticalAlign=middle;resizable=0;points=[];fontSize=15;" vertex="1" connectable="0" parent="NtnKku0HyVxLoSLJdXPD-34">
          <mxGeometry x="0.0779" y="-2" relative="1" as="geometry">
            <mxPoint x="-4" y="-25" as="offset" />
          </mxGeometry>
        </mxCell>
        <mxCell id="NtnKku0HyVxLoSLJdXPD-30" value="&lt;span style=&quot;color: rgba(0 , 0 , 0 , 0) ; font-family: monospace ; font-size: 0px&quot;&gt;ㅇ&lt;/span&gt;" style="rounded=1;whiteSpace=wrap;html=1;sketch=0;fontSize=20;fontColor=#1D3557;strokeColor=#457B9D;strokeWidth=2;fillColor=#E8F0FC;" vertex="1" parent="1">
          <mxGeometry x="-670" y="982.56" width="184.13" height="80" as="geometry" />
        </mxCell>
        <mxCell id="NtnKku0HyVxLoSLJdXPD-32" value="내새끼 수정 페이지&lt;br&gt;/mybaby/edit&lt;br&gt;[GET]" style="text;html=1;strokeColor=none;fillColor=none;align=center;verticalAlign=middle;whiteSpace=wrap;rounded=0;fontSize=15;" vertex="1" parent="1">
          <mxGeometry x="-658.8799999999999" y="982.56" width="158.88" height="80" as="geometry" />
        </mxCell>
        <mxCell id="NtnKku0HyVxLoSLJdXPD-33" value="&lt;span style=&quot;color: rgba(0 , 0 , 0 , 0) ; font-family: monospace ; font-size: 0px&quot;&gt;ㅇ&lt;/span&gt;" style="rounded=1;whiteSpace=wrap;html=1;sketch=0;fontSize=20;fontColor=#1D3557;strokeColor=#457B9D;strokeWidth=2;fillColor=#FFE6CC;" vertex="1" parent="1">
          <mxGeometry x="-670" y="810" width="184.13" height="80" as="geometry" />
        </mxCell>
        <mxCell id="NtnKku0HyVxLoSLJdXPD-36" style="edgeStyle=orthogonalEdgeStyle;rounded=1;orthogonalLoop=1;jettySize=auto;html=1;entryX=0;entryY=0.5;entryDx=0;entryDy=0;fontSize=15;strokeColor=#FF9999;" edge="1" parent="1" source="NtnKku0HyVxLoSLJdXPD-35" target="NtnKku0HyVxLoSLJdXPD-23">
          <mxGeometry relative="1" as="geometry">
            <Array as="points">
              <mxPoint x="-420" y="840" />
            </Array>
          </mxGeometry>
        </mxCell>
        <mxCell id="NtnKku0HyVxLoSLJdXPD-42" value="MybabyNo" style="edgeLabel;html=1;align=center;verticalAlign=middle;resizable=0;points=[];fontSize=15;" vertex="1" connectable="0" parent="NtnKku0HyVxLoSLJdXPD-36">
          <mxGeometry x="0.4682" y="-3" relative="1" as="geometry">
            <mxPoint x="-11" y="-3" as="offset" />
          </mxGeometry>
        </mxCell>
        <mxCell id="NtnKku0HyVxLoSLJdXPD-35" value="내새끼 수정 처리&lt;br&gt;/mybaby/edit&lt;br&gt;[POST]" style="text;html=1;strokeColor=none;fillColor=none;align=center;verticalAlign=middle;whiteSpace=wrap;rounded=0;fontSize=15;" vertex="1" parent="1">
          <mxGeometry x="-660.01" y="810" width="160" height="80" as="geometry" />
        </mxCell>
        <mxCell id="NtnKku0HyVxLoSLJdXPD-47" style="edgeStyle=orthogonalEdgeStyle;rounded=1;orthogonalLoop=1;jettySize=auto;html=1;fontSize=15;strokeColor=#7EA6E0;" edge="1" parent="1" source="NtnKku0HyVxLoSLJdXPD-43">
          <mxGeometry relative="1" as="geometry">
            <mxPoint x="170" y="680" as="targetPoint" />
            <Array as="points">
              <mxPoint x="170" y="1030" />
            </Array>
          </mxGeometry>
        </mxCell>
        <mxCell id="NtnKku0HyVxLoSLJdXPD-43" value="&lt;span style=&quot;color: rgba(0 , 0 , 0 , 0) ; font-family: monospace ; font-size: 0px&quot;&gt;ㅇ&lt;/span&gt;" style="rounded=1;whiteSpace=wrap;html=1;sketch=0;fontSize=20;fontColor=#1D3557;strokeColor=#457B9D;strokeWidth=2;fillColor=#E8F0FC;" vertex="1" parent="1">
          <mxGeometry x="-60" y="982.5600000000001" width="184.13" height="80" as="geometry" />
        </mxCell>
        <mxCell id="NtnKku0HyVxLoSLJdXPD-45" value="내새끼 삭제&lt;br&gt;/mybaby/delete&lt;br&gt;[GET]" style="text;html=1;strokeColor=none;fillColor=none;align=center;verticalAlign=middle;whiteSpace=wrap;rounded=0;fontSize=15;" vertex="1" parent="1">
          <mxGeometry x="-50" y="982.5600000000001" width="160" height="80" as="geometry" />
        </mxCell>
        <mxCell id="NtnKku0HyVxLoSLJdXPD-53" style="edgeStyle=orthogonalEdgeStyle;rounded=1;orthogonalLoop=1;jettySize=auto;html=1;entryX=0.869;entryY=1;entryDx=0;entryDy=0;entryPerimeter=0;fontSize=15;strokeColor=#7EA6E0;" edge="1" parent="1" source="NtnKku0HyVxLoSLJdXPD-49" target="NtnKku0HyVxLoSLJdXPD-12">
          <mxGeometry relative="1" as="geometry">
            <Array as="points">
              <mxPoint x="170" y="1190" />
            </Array>
          </mxGeometry>
        </mxCell>
        <mxCell id="NtnKku0HyVxLoSLJdXPD-49" value="&lt;span style=&quot;color: rgba(0 , 0 , 0 , 0) ; font-family: monospace ; font-size: 0px&quot;&gt;d&lt;/span&gt;" style="rounded=1;whiteSpace=wrap;html=1;sketch=0;fontSize=20;fontColor=#1D3557;strokeColor=#457B9D;strokeWidth=2;fillColor=#E8F0FC;" vertex="1" parent="1">
          <mxGeometry x="-60" y="1142.56" width="184.13" height="80" as="geometry" />
        </mxCell>
        <mxCell id="NtnKku0HyVxLoSLJdXPD-52" value="내새끼 이미지 삭제&lt;br&gt;/mybaby/dropimg&lt;br&gt;[GET]" style="text;html=1;strokeColor=none;fillColor=none;align=center;verticalAlign=middle;whiteSpace=wrap;rounded=0;fontSize=15;" vertex="1" parent="1">
          <mxGeometry x="-47.93000000000001" y="1142.56" width="160" height="80" as="geometry" />
        </mxCell>
        <mxCell id="NtnKku0HyVxLoSLJdXPD-55" value="MYBABY&lt;br&gt;내새끼 자랑 게시판" style="text;html=1;strokeColor=none;fillColor=none;align=center;verticalAlign=middle;whiteSpace=wrap;rounded=0;fontSize=15;" vertex="1" parent="1">
          <mxGeometry x="170" y="540" width="150" height="45" as="geometry" />
        </mxCell>
        <mxCell id="NtnKku0HyVxLoSLJdXPD-189" style="edgeStyle=orthogonalEdgeStyle;rounded=1;orthogonalLoop=1;jettySize=auto;html=1;entryX=0.404;entryY=-0.026;entryDx=0;entryDy=0;entryPerimeter=0;fontSize=15;strokeColor=#7EA6E0;" edge="1" parent="1" source="NtnKku0HyVxLoSLJdXPD-97" target="NtnKku0HyVxLoSLJdXPD-114">
          <mxGeometry relative="1" as="geometry">
            <Array as="points">
              <mxPoint x="782" y="747.5" />
              <mxPoint x="1326" y="747.5" />
            </Array>
          </mxGeometry>
        </mxCell>
        <mxCell id="NtnKku0HyVxLoSLJdXPD-190" value="AdoptNo" style="edgeLabel;html=1;align=center;verticalAlign=middle;resizable=0;points=[];fontSize=15;" vertex="1" connectable="0" parent="NtnKku0HyVxLoSLJdXPD-189">
          <mxGeometry x="-0.2369" y="1" relative="1" as="geometry">
            <mxPoint as="offset" />
          </mxGeometry>
        </mxCell>
        <mxCell id="NtnKku0HyVxLoSLJdXPD-193" style="edgeStyle=orthogonalEdgeStyle;rounded=1;orthogonalLoop=1;jettySize=auto;html=1;fontSize=15;strokeColor=#7EA6E0;" edge="1" parent="1" source="NtnKku0HyVxLoSLJdXPD-97" target="NtnKku0HyVxLoSLJdXPD-192">
          <mxGeometry relative="1" as="geometry" />
        </mxCell>
        <mxCell id="NtnKku0HyVxLoSLJdXPD-97" value="&lt;span style=&quot;color: rgba(0 , 0 , 0 , 0) ; font-family: monospace ; font-size: 0px&quot;&gt;ㅇ&lt;/span&gt;" style="rounded=1;whiteSpace=wrap;html=1;sketch=0;fontSize=20;fontColor=#1D3557;strokeColor=#457B9D;strokeWidth=2;fillColor=#E8F0FC;" vertex="1" parent="1">
          <mxGeometry x="690.0000000000001" y="632.5" width="184.13" height="80" as="geometry" />
        </mxCell>
        <mxCell id="NtnKku0HyVxLoSLJdXPD-98" value="입양공고 목록 페이지&lt;br style=&quot;font-size: 15px&quot;&gt;/adopt/&amp;nbsp; or&amp;nbsp; &lt;br&gt;/adopt/list&amp;nbsp;&lt;br style=&quot;font-size: 15px&quot;&gt;[REQUEST]" style="text;html=1;strokeColor=none;fillColor=none;align=center;verticalAlign=middle;whiteSpace=wrap;rounded=0;fontSize=15;" vertex="1" parent="1">
          <mxGeometry x="701.12" y="637.5" width="161.9" height="65" as="geometry" />
        </mxCell>
        <mxCell id="NtnKku0HyVxLoSLJdXPD-99" value="" style="edgeStyle=orthogonalEdgeStyle;rounded=1;orthogonalLoop=1;jettySize=auto;html=1;fontSize=15;strokeColor=#7EA6E0;" edge="1" parent="1" source="NtnKku0HyVxLoSLJdXPD-101" target="NtnKku0HyVxLoSLJdXPD-105">
          <mxGeometry relative="1" as="geometry" />
        </mxCell>
        <mxCell id="NtnKku0HyVxLoSLJdXPD-100" value="AdoptFileVO" style="edgeLabel;html=1;align=center;verticalAlign=middle;resizable=0;points=[];fontSize=15;" vertex="1" connectable="0" parent="NtnKku0HyVxLoSLJdXPD-99">
          <mxGeometry x="-0.2381" y="1" relative="1" as="geometry">
            <mxPoint x="29" y="-1" as="offset" />
          </mxGeometry>
        </mxCell>
        <mxCell id="NtnKku0HyVxLoSLJdXPD-101" value="&lt;span style=&quot;color: rgba(0 , 0 , 0 , 0) ; font-family: monospace ; font-size: 0px&quot;&gt;df&lt;/span&gt;" style="rounded=1;whiteSpace=wrap;html=1;sketch=0;fontSize=20;fontColor=#1D3557;strokeColor=#457B9D;strokeWidth=2;fillColor=#E8F0FC;" vertex="1" parent="1">
          <mxGeometry x="1240.0000000000002" y="632.5" width="184.13" height="80" as="geometry" />
        </mxCell>
        <mxCell id="NtnKku0HyVxLoSLJdXPD-102" value="입양공고 작성 페이지&lt;br&gt;/adopt/write&lt;br&gt;[GET]" style="text;html=1;strokeColor=none;fillColor=none;align=center;verticalAlign=middle;whiteSpace=wrap;rounded=0;fontSize=15;" vertex="1" parent="1">
          <mxGeometry x="1250.0000000000002" y="632.5" width="170" height="80" as="geometry" />
        </mxCell>
        <mxCell id="NtnKku0HyVxLoSLJdXPD-105" value="&lt;span style=&quot;color: rgba(0 , 0 , 0 , 0) ; font-family: monospace ; font-size: 0px&quot;&gt;df&lt;/span&gt;" style="rounded=1;whiteSpace=wrap;html=1;sketch=0;fontSize=20;strokeColor=#d79b00;strokeWidth=2;fillColor=#FFE6CC;" vertex="1" parent="1">
          <mxGeometry x="1632.69" y="632.5" width="184.13" height="80" as="geometry" />
        </mxCell>
        <mxCell id="NtnKku0HyVxLoSLJdXPD-171" style="edgeStyle=orthogonalEdgeStyle;rounded=1;orthogonalLoop=1;jettySize=auto;html=1;entryX=1;entryY=0.25;entryDx=0;entryDy=0;fontSize=15;strokeColor=#7EA6E0;" edge="1" parent="1" source="NtnKku0HyVxLoSLJdXPD-106" target="NtnKku0HyVxLoSLJdXPD-111">
          <mxGeometry relative="1" as="geometry">
            <Array as="points">
              <mxPoint x="1725" y="837.5" />
            </Array>
          </mxGeometry>
        </mxCell>
        <mxCell id="NtnKku0HyVxLoSLJdXPD-172" value="AdoptNo" style="edgeLabel;html=1;align=center;verticalAlign=middle;resizable=0;points=[];fontSize=15;" vertex="1" connectable="0" parent="NtnKku0HyVxLoSLJdXPD-171">
          <mxGeometry x="0.2535" y="1" relative="1" as="geometry">
            <mxPoint as="offset" />
          </mxGeometry>
        </mxCell>
        <mxCell id="NtnKku0HyVxLoSLJdXPD-106" value="입양공고 작성 처리&lt;br&gt;/adopt/write&lt;br&gt;[POST]" style="text;html=1;strokeColor=none;fillColor=none;align=center;verticalAlign=middle;whiteSpace=wrap;rounded=0;fontSize=15;" vertex="1" parent="1">
          <mxGeometry x="1641.25" y="632.5" width="167" height="80" as="geometry" />
        </mxCell>
        <mxCell id="NtnKku0HyVxLoSLJdXPD-206" style="edgeStyle=orthogonalEdgeStyle;rounded=1;orthogonalLoop=1;jettySize=auto;html=1;entryX=0.5;entryY=0;entryDx=0;entryDy=0;fontSize=15;strokeColor=#7EA6E0;" edge="1" parent="1" source="NtnKku0HyVxLoSLJdXPD-111" target="NtnKku0HyVxLoSLJdXPD-204">
          <mxGeometry relative="1" as="geometry" />
        </mxCell>
        <mxCell id="NtnKku0HyVxLoSLJdXPD-111" value="&lt;span style=&quot;color: rgba(0 , 0 , 0 , 0) ; font-family: monospace ; font-size: 0px&quot;&gt;ㅇ&lt;/span&gt;" style="rounded=1;whiteSpace=wrap;html=1;sketch=0;fontSize=20;fontColor=#1D3557;strokeColor=#457B9D;strokeWidth=2;fillColor=#E8F0FC;" vertex="1" parent="1">
          <mxGeometry x="1250" y="817.5" width="184.13" height="80" as="geometry" />
        </mxCell>
        <mxCell id="NtnKku0HyVxLoSLJdXPD-199" style="edgeStyle=orthogonalEdgeStyle;rounded=1;orthogonalLoop=1;jettySize=auto;html=1;entryX=0.5;entryY=0;entryDx=0;entryDy=0;fontSize=15;strokeColor=#7EA6E0;" edge="1" parent="1" source="NtnKku0HyVxLoSLJdXPD-114" target="NtnKku0HyVxLoSLJdXPD-196">
          <mxGeometry relative="1" as="geometry" />
        </mxCell>
        <mxCell id="NtnKku0HyVxLoSLJdXPD-114" value="입양공고 상세 페이지&lt;br&gt;/adopt/detail&lt;br&gt;[GET]" style="text;html=1;strokeColor=none;fillColor=none;align=center;verticalAlign=middle;whiteSpace=wrap;rounded=0;fontSize=15;" vertex="1" parent="1">
          <mxGeometry x="1257.0700000000002" y="817.5" width="170" height="80" as="geometry" />
        </mxCell>
        <mxCell id="NtnKku0HyVxLoSLJdXPD-176" style="edgeStyle=orthogonalEdgeStyle;rounded=1;orthogonalLoop=1;jettySize=auto;html=1;entryX=0.55;entryY=1;entryDx=0;entryDy=0;entryPerimeter=0;fontSize=15;strokeColor=#7EA6E0;" edge="1" parent="1" source="NtnKku0HyVxLoSLJdXPD-117" target="NtnKku0HyVxLoSLJdXPD-122">
          <mxGeometry relative="1" as="geometry" />
        </mxCell>
        <mxCell id="NtnKku0HyVxLoSLJdXPD-177" value="AdoptFileVO" style="edgeLabel;html=1;align=center;verticalAlign=middle;resizable=0;points=[];fontSize=15;" vertex="1" connectable="0" parent="NtnKku0HyVxLoSLJdXPD-176">
          <mxGeometry x="0.2896" y="2" relative="1" as="geometry">
            <mxPoint as="offset" />
          </mxGeometry>
        </mxCell>
        <mxCell id="NtnKku0HyVxLoSLJdXPD-117" value="&lt;span style=&quot;color: rgba(0 , 0 , 0 , 0) ; font-family: monospace ; font-size: 0px&quot;&gt;ㅇ&lt;/span&gt;" style="rounded=1;whiteSpace=wrap;html=1;sketch=0;fontSize=20;fontColor=#1D3557;strokeColor=#457B9D;strokeWidth=2;fillColor=#E8F0FC;" vertex="1" parent="1">
          <mxGeometry x="1249.42" y="1127.5" width="184.13" height="80" as="geometry" />
        </mxCell>
        <mxCell id="NtnKku0HyVxLoSLJdXPD-118" value="입양공고 수정 페이지&lt;br&gt;/adopt/edit&lt;br&gt;[GET]" style="text;html=1;strokeColor=none;fillColor=none;align=center;verticalAlign=middle;whiteSpace=wrap;rounded=0;fontSize=15;" vertex="1" parent="1">
          <mxGeometry x="1260.54" y="1127.5" width="158.88" height="80" as="geometry" />
        </mxCell>
        <mxCell id="NtnKku0HyVxLoSLJdXPD-178" style="edgeStyle=orthogonalEdgeStyle;rounded=1;orthogonalLoop=1;jettySize=auto;html=1;fontSize=15;strokeColor=#7EA6E0;entryX=0.714;entryY=1.053;entryDx=0;entryDy=0;entryPerimeter=0;" edge="1" parent="1" source="NtnKku0HyVxLoSLJdXPD-119" target="NtnKku0HyVxLoSLJdXPD-114">
          <mxGeometry relative="1" as="geometry">
            <mxPoint x="1410" y="957.5" as="targetPoint" />
            <Array as="points">
              <mxPoint x="1610" y="887.5" />
              <mxPoint x="1610" y="947.5" />
              <mxPoint x="1378" y="947.5" />
            </Array>
          </mxGeometry>
        </mxCell>
        <mxCell id="NtnKku0HyVxLoSLJdXPD-179" value="AdoptNo" style="edgeLabel;html=1;align=center;verticalAlign=middle;resizable=0;points=[];fontSize=15;" vertex="1" connectable="0" parent="NtnKku0HyVxLoSLJdXPD-178">
          <mxGeometry x="-0.1809" y="1" relative="1" as="geometry">
            <mxPoint x="-46" y="-1" as="offset" />
          </mxGeometry>
        </mxCell>
        <mxCell id="NtnKku0HyVxLoSLJdXPD-119" value="&lt;span style=&quot;color: rgba(0 , 0 , 0 , 0) ; font-family: monospace ; font-size: 0px&quot;&gt;ㅇ&lt;/span&gt;" style="rounded=1;whiteSpace=wrap;html=1;sketch=0;fontSize=20;fontColor=#1D3557;strokeColor=#457B9D;strokeWidth=2;fillColor=#FFE6CC;" vertex="1" parent="1">
          <mxGeometry x="1634" y="847.5" width="184.13" height="80" as="geometry" />
        </mxCell>
        <mxCell id="NtnKku0HyVxLoSLJdXPD-122" value="입양공고 수정 처리&lt;br&gt;/adopt/edit&lt;br&gt;[POST]" style="text;html=1;strokeColor=none;fillColor=none;align=center;verticalAlign=middle;whiteSpace=wrap;rounded=0;fontSize=15;" vertex="1" parent="1">
          <mxGeometry x="1643.99" y="847.5" width="160" height="80" as="geometry" />
        </mxCell>
        <mxCell id="NtnKku0HyVxLoSLJdXPD-124" value="&lt;span style=&quot;color: rgba(0 , 0 , 0 , 0) ; font-family: monospace ; font-size: 0px&quot;&gt;ㅇ&lt;/span&gt;" style="rounded=1;whiteSpace=wrap;html=1;sketch=0;fontSize=20;fontColor=#1D3557;strokeColor=#457B9D;strokeWidth=2;fillColor=#E8F0FC;" vertex="1" parent="1">
          <mxGeometry x="807.0000000000002" y="942.5" width="184.13" height="80" as="geometry" />
        </mxCell>
        <mxCell id="NtnKku0HyVxLoSLJdXPD-184" style="edgeStyle=orthogonalEdgeStyle;rounded=1;orthogonalLoop=1;jettySize=auto;html=1;entryX=0.39;entryY=0.988;entryDx=0;entryDy=0;entryPerimeter=0;fontSize=15;strokeColor=#7EA6E0;" edge="1" parent="1" source="NtnKku0HyVxLoSLJdXPD-125" target="NtnKku0HyVxLoSLJdXPD-97">
          <mxGeometry relative="1" as="geometry">
            <Array as="points">
              <mxPoint x="762" y="982.5" />
            </Array>
          </mxGeometry>
        </mxCell>
        <mxCell id="NtnKku0HyVxLoSLJdXPD-125" value="입양공고 삭제&lt;br&gt;/adopt/delete&lt;br&gt;[GET]" style="text;html=1;strokeColor=none;fillColor=none;align=center;verticalAlign=middle;whiteSpace=wrap;rounded=0;fontSize=15;" vertex="1" parent="1">
          <mxGeometry x="817.0000000000002" y="942.5" width="160" height="80" as="geometry" />
        </mxCell>
        <mxCell id="NtnKku0HyVxLoSLJdXPD-186" style="edgeStyle=orthogonalEdgeStyle;rounded=1;orthogonalLoop=1;jettySize=auto;html=1;entryX=0.39;entryY=0.988;entryDx=0;entryDy=0;entryPerimeter=0;fontSize=15;strokeColor=#7EA6E0;" edge="1" parent="1" source="NtnKku0HyVxLoSLJdXPD-127" target="NtnKku0HyVxLoSLJdXPD-97">
          <mxGeometry relative="1" as="geometry">
            <Array as="points">
              <mxPoint x="762" y="1167.5" />
            </Array>
          </mxGeometry>
        </mxCell>
        <mxCell id="NtnKku0HyVxLoSLJdXPD-127" value="&lt;span style=&quot;color: rgba(0 , 0 , 0 , 0) ; font-family: monospace ; font-size: 0px&quot;&gt;d&lt;/span&gt;" style="rounded=1;whiteSpace=wrap;html=1;sketch=0;fontSize=20;fontColor=#1D3557;strokeColor=#457B9D;strokeWidth=2;fillColor=#E8F0FC;" vertex="1" parent="1">
          <mxGeometry x="807.0000000000002" y="1127.5" width="184.13" height="80" as="geometry" />
        </mxCell>
        <mxCell id="NtnKku0HyVxLoSLJdXPD-128" value="입양공고 이미지 삭제&lt;br&gt;/adopt/dropimg&lt;br&gt;[GET]" style="text;html=1;strokeColor=none;fillColor=none;align=center;verticalAlign=middle;whiteSpace=wrap;rounded=0;fontSize=15;" vertex="1" parent="1">
          <mxGeometry x="819.0699999999999" y="1127.5" width="160" height="80" as="geometry" />
        </mxCell>
        <mxCell id="NtnKku0HyVxLoSLJdXPD-170" style="edgeStyle=orthogonalEdgeStyle;rounded=1;orthogonalLoop=1;jettySize=auto;html=1;entryX=0.5;entryY=0;entryDx=0;entryDy=0;fontSize=15;strokeColor=#7EA6E0;" edge="1" parent="1" source="85etgImM21U0zFLn9ePR-2" target="NtnKku0HyVxLoSLJdXPD-97">
          <mxGeometry relative="1" as="geometry" />
        </mxCell>
        <mxCell id="NtnKku0HyVxLoSLJdXPD-191" value="" style="rounded=0;whiteSpace=wrap;html=1;fontSize=15;" vertex="1" parent="1">
          <mxGeometry x="999.9999999999999" y="642.5" width="120" height="60" as="geometry" />
        </mxCell>
        <mxCell id="NtnKku0HyVxLoSLJdXPD-194" style="edgeStyle=orthogonalEdgeStyle;rounded=1;orthogonalLoop=1;jettySize=auto;html=1;entryX=0;entryY=0.5;entryDx=0;entryDy=0;fontSize=15;strokeColor=#7EA6E0;" edge="1" parent="1" source="NtnKku0HyVxLoSLJdXPD-192" target="NtnKku0HyVxLoSLJdXPD-101">
          <mxGeometry relative="1" as="geometry" />
        </mxCell>
        <mxCell id="NtnKku0HyVxLoSLJdXPD-192" value="LginInterceptor" style="text;html=1;strokeColor=none;fillColor=none;align=center;verticalAlign=middle;whiteSpace=wrap;rounded=0;fontSize=15;" vertex="1" parent="1">
          <mxGeometry x="999.9999999999999" y="645" width="121.18" height="55" as="geometry" />
        </mxCell>
        <mxCell id="NtnKku0HyVxLoSLJdXPD-196" value="" style="rounded=0;whiteSpace=wrap;html=1;fontSize=15;" vertex="1" parent="1">
          <mxGeometry x="1280.9" y="977.5" width="120" height="60" as="geometry" />
        </mxCell>
        <mxCell id="NtnKku0HyVxLoSLJdXPD-201" style="edgeStyle=orthogonalEdgeStyle;rounded=1;orthogonalLoop=1;jettySize=auto;html=1;fontSize=15;strokeColor=#7EA6E0;" edge="1" parent="1" source="NtnKku0HyVxLoSLJdXPD-197">
          <mxGeometry relative="1" as="geometry">
            <mxPoint x="1342" y="1127.5" as="targetPoint" />
          </mxGeometry>
        </mxCell>
        <mxCell id="NtnKku0HyVxLoSLJdXPD-202" value="AdoptNo&lt;br&gt;Model" style="edgeLabel;html=1;align=center;verticalAlign=middle;resizable=0;points=[];fontSize=15;" vertex="1" connectable="0" parent="NtnKku0HyVxLoSLJdXPD-201">
          <mxGeometry x="-0.2654" relative="1" as="geometry">
            <mxPoint x="-1" y="9" as="offset" />
          </mxGeometry>
        </mxCell>
        <mxCell id="NtnKku0HyVxLoSLJdXPD-197" value="LginInterceptor" style="text;html=1;strokeColor=none;fillColor=none;align=center;verticalAlign=middle;whiteSpace=wrap;rounded=0;fontSize=15;" vertex="1" parent="1">
          <mxGeometry x="1280.9" y="980" width="121.18" height="55" as="geometry" />
        </mxCell>
        <mxCell id="NtnKku0HyVxLoSLJdXPD-204" value="" style="rounded=0;whiteSpace=wrap;html=1;fontSize=15;" vertex="1" parent="1">
          <mxGeometry x="1071.7700000000002" y="887.5" width="120" height="60" as="geometry" />
        </mxCell>
        <mxCell id="NtnKku0HyVxLoSLJdXPD-207" style="edgeStyle=orthogonalEdgeStyle;rounded=1;orthogonalLoop=1;jettySize=auto;html=1;entryX=1;entryY=0.5;entryDx=0;entryDy=0;fontSize=15;strokeColor=#7EA6E0;" edge="1" parent="1" source="NtnKku0HyVxLoSLJdXPD-205" target="NtnKku0HyVxLoSLJdXPD-124">
          <mxGeometry relative="1" as="geometry">
            <Array as="points">
              <mxPoint x="1130" y="982.5" />
            </Array>
          </mxGeometry>
        </mxCell>
        <mxCell id="NtnKku0HyVxLoSLJdXPD-209" value="AdoptNo" style="edgeLabel;html=1;align=center;verticalAlign=middle;resizable=0;points=[];fontSize=15;" vertex="1" connectable="0" parent="NtnKku0HyVxLoSLJdXPD-207">
          <mxGeometry x="0.3559" y="-1" relative="1" as="geometry">
            <mxPoint x="12" y="-1" as="offset" />
          </mxGeometry>
        </mxCell>
        <mxCell id="NtnKku0HyVxLoSLJdXPD-208" style="edgeStyle=orthogonalEdgeStyle;rounded=1;orthogonalLoop=1;jettySize=auto;html=1;entryX=1;entryY=0.5;entryDx=0;entryDy=0;fontSize=15;strokeColor=#7EA6E0;" edge="1" parent="1" source="NtnKku0HyVxLoSLJdXPD-205" target="NtnKku0HyVxLoSLJdXPD-127">
          <mxGeometry relative="1" as="geometry">
            <Array as="points">
              <mxPoint x="1130" y="1167.5" />
            </Array>
          </mxGeometry>
        </mxCell>
        <mxCell id="NtnKku0HyVxLoSLJdXPD-210" value="AdoptNo&lt;br&gt;AdoptImgNo" style="edgeLabel;html=1;align=center;verticalAlign=middle;resizable=0;points=[];fontSize=15;" vertex="1" connectable="0" parent="NtnKku0HyVxLoSLJdXPD-208">
          <mxGeometry x="0.4876" y="4" relative="1" as="geometry">
            <mxPoint x="-24" as="offset" />
          </mxGeometry>
        </mxCell>
        <mxCell id="NtnKku0HyVxLoSLJdXPD-205" value="LginInterceptor" style="text;html=1;strokeColor=none;fillColor=none;align=center;verticalAlign=middle;whiteSpace=wrap;rounded=0;fontSize=15;" vertex="1" parent="1">
          <mxGeometry x="1071.7700000000002" y="890" width="121.18" height="55" as="geometry" />
        </mxCell>
        <mxCell id="NtnKku0HyVxLoSLJdXPD-212" value="ADOPT&lt;br&gt;입양공고 게시판" style="text;html=1;strokeColor=none;fillColor=none;align=center;verticalAlign=middle;whiteSpace=wrap;rounded=0;fontSize=15;" vertex="1" parent="1">
          <mxGeometry x="641.12" y="582.5" width="118.88" height="30" as="geometry" />
        </mxCell>
        <mxCell id="NtnKku0HyVxLoSLJdXPD-217" value="" style="rounded=0;whiteSpace=wrap;html=1;fontSize=15;" vertex="1" parent="1">
          <mxGeometry x="399.4100000000002" y="510" width="120" height="60" as="geometry" />
        </mxCell>
        <mxCell id="NtnKku0HyVxLoSLJdXPD-218" value="LginInterceptor" style="text;html=1;strokeColor=none;fillColor=none;align=center;verticalAlign=middle;whiteSpace=wrap;rounded=0;fontSize=15;" vertex="1" parent="1">
          <mxGeometry x="399.40999999999997" y="512.5" width="121.18" height="55" as="geometry" />
        </mxCell>
        <mxCell id="NtnKku0HyVxLoSLJdXPD-219" value="" style="rounded=0;whiteSpace=wrap;html=1;fontSize=15;" vertex="1" parent="1">
          <mxGeometry x="-169.1099999999998" y="607.5" width="120" height="60" as="geometry" />
        </mxCell>
        <mxCell id="NtnKku0HyVxLoSLJdXPD-223" style="edgeStyle=orthogonalEdgeStyle;rounded=1;orthogonalLoop=1;jettySize=auto;html=1;entryX=1.003;entryY=0.461;entryDx=0;entryDy=0;entryPerimeter=0;fontSize=15;strokeColor=#7EA6E0;" edge="1" parent="1" source="NtnKku0HyVxLoSLJdXPD-220" target="NtnKku0HyVxLoSLJdXPD-17">
          <mxGeometry relative="1" as="geometry" />
        </mxCell>
        <mxCell id="NtnKku0HyVxLoSLJdXPD-220" value="LginInterceptor" style="text;html=1;strokeColor=none;fillColor=none;align=center;verticalAlign=middle;whiteSpace=wrap;rounded=0;fontSize=15;" vertex="1" parent="1">
          <mxGeometry x="-169.11" y="610" width="121.18" height="55" as="geometry" />
        </mxCell>
        <mxCell id="NtnKku0HyVxLoSLJdXPD-224" value="" style="rounded=0;whiteSpace=wrap;html=1;fontSize=15;" vertex="1" parent="1">
          <mxGeometry x="-290.28999999999974" y="992.56" width="120" height="60" as="geometry" />
        </mxCell>
        <mxCell id="NtnKku0HyVxLoSLJdXPD-227" style="edgeStyle=orthogonalEdgeStyle;rounded=1;orthogonalLoop=1;jettySize=auto;html=1;entryX=1;entryY=0.5;entryDx=0;entryDy=0;fontSize=15;strokeColor=#7EA6E0;" edge="1" parent="1" source="NtnKku0HyVxLoSLJdXPD-225" target="NtnKku0HyVxLoSLJdXPD-30">
          <mxGeometry relative="1" as="geometry" />
        </mxCell>
        <mxCell id="NtnKku0HyVxLoSLJdXPD-228" value="MybabyNo&lt;br&gt;Model" style="edgeLabel;html=1;align=center;verticalAlign=middle;resizable=0;points=[];fontSize=15;" vertex="1" connectable="0" parent="NtnKku0HyVxLoSLJdXPD-227">
          <mxGeometry x="0.1726" y="1" relative="1" as="geometry">
            <mxPoint as="offset" />
          </mxGeometry>
        </mxCell>
        <mxCell id="NtnKku0HyVxLoSLJdXPD-232" style="edgeStyle=orthogonalEdgeStyle;rounded=1;orthogonalLoop=1;jettySize=auto;html=1;entryX=0;entryY=0.5;entryDx=0;entryDy=0;fontSize=15;strokeColor=#7EA6E0;" edge="1" parent="1" source="NtnKku0HyVxLoSLJdXPD-225" target="NtnKku0HyVxLoSLJdXPD-43">
          <mxGeometry relative="1" as="geometry" />
        </mxCell>
        <mxCell id="NtnKku0HyVxLoSLJdXPD-234" value="MybabyNo" style="edgeLabel;html=1;align=center;verticalAlign=middle;resizable=0;points=[];fontSize=15;" vertex="1" connectable="0" parent="NtnKku0HyVxLoSLJdXPD-232">
          <mxGeometry x="-0.314" y="-2" relative="1" as="geometry">
            <mxPoint x="11" y="-2" as="offset" />
          </mxGeometry>
        </mxCell>
        <mxCell id="NtnKku0HyVxLoSLJdXPD-233" style="edgeStyle=orthogonalEdgeStyle;rounded=1;orthogonalLoop=1;jettySize=auto;html=1;entryX=0;entryY=0.5;entryDx=0;entryDy=0;fontSize=15;strokeColor=#7EA6E0;" edge="1" parent="1" source="NtnKku0HyVxLoSLJdXPD-225" target="NtnKku0HyVxLoSLJdXPD-49">
          <mxGeometry relative="1" as="geometry">
            <Array as="points">
              <mxPoint x="-220" y="1183" />
            </Array>
          </mxGeometry>
        </mxCell>
        <mxCell id="NtnKku0HyVxLoSLJdXPD-235" value="MybabyNo&lt;br&gt;MybabyImgNo" style="edgeLabel;html=1;align=center;verticalAlign=middle;resizable=0;points=[];fontSize=15;" vertex="1" connectable="0" parent="NtnKku0HyVxLoSLJdXPD-233">
          <mxGeometry x="-0.6614" y="-1" relative="1" as="geometry">
            <mxPoint as="offset" />
          </mxGeometry>
        </mxCell>
        <mxCell id="NtnKku0HyVxLoSLJdXPD-225" value="LginInterceptor" style="text;html=1;strokeColor=none;fillColor=none;align=center;verticalAlign=middle;whiteSpace=wrap;rounded=0;fontSize=15;" vertex="1" parent="1">
          <mxGeometry x="-290.28999999999996" y="995.06" width="121.18" height="55" as="geometry" />
        </mxCell>
        <mxCell id="NtnKku0HyVxLoSLJdXPD-241" style="edgeStyle=orthogonalEdgeStyle;rounded=1;orthogonalLoop=1;jettySize=auto;html=1;fontSize=15;strokeColor=#7EA6E0;" edge="1" parent="1" source="NtnKku0HyVxLoSLJdXPD-242" target="NtnKku0HyVxLoSLJdXPD-272">
          <mxGeometry relative="1" as="geometry" />
        </mxCell>
        <mxCell id="NtnKku0HyVxLoSLJdXPD-291" style="edgeStyle=orthogonalEdgeStyle;rounded=1;orthogonalLoop=1;jettySize=auto;html=1;entryX=0;entryY=0.5;entryDx=0;entryDy=0;fontSize=15;strokeColor=#7EA6E0;" edge="1" parent="1" source="NtnKku0HyVxLoSLJdXPD-242" target="NtnKku0HyVxLoSLJdXPD-288">
          <mxGeometry relative="1" as="geometry">
            <Array as="points">
              <mxPoint x="2390" y="786" />
            </Array>
          </mxGeometry>
        </mxCell>
        <mxCell id="NtnKku0HyVxLoSLJdXPD-242" value="&lt;span style=&quot;color: rgba(0 , 0 , 0 , 0) ; font-family: monospace ; font-size: 0px&quot;&gt;ㅇ&lt;/span&gt;" style="rounded=1;whiteSpace=wrap;html=1;sketch=0;fontSize=20;fontColor=#1D3557;strokeColor=#457B9D;strokeWidth=2;fillColor=#E8F0FC;" vertex="1" parent="1">
          <mxGeometry x="2260" y="635" width="184.13" height="80" as="geometry" />
        </mxCell>
        <mxCell id="NtnKku0HyVxLoSLJdXPD-243" value="문의내역 목록 페이지&lt;br style=&quot;font-size: 15px&quot;&gt;/question/&amp;nbsp; or&amp;nbsp; &lt;br&gt;/question/list&amp;nbsp;&lt;br style=&quot;font-size: 15px&quot;&gt;[REQUEST]" style="text;html=1;strokeColor=none;fillColor=none;align=center;verticalAlign=middle;whiteSpace=wrap;rounded=0;fontSize=15;" vertex="1" parent="1">
          <mxGeometry x="2271.12" y="640" width="161.9" height="65" as="geometry" />
        </mxCell>
        <mxCell id="NtnKku0HyVxLoSLJdXPD-244" value="" style="edgeStyle=orthogonalEdgeStyle;rounded=1;orthogonalLoop=1;jettySize=auto;html=1;fontSize=15;strokeColor=#7EA6E0;" edge="1" parent="1" source="NtnKku0HyVxLoSLJdXPD-246" target="NtnKku0HyVxLoSLJdXPD-248">
          <mxGeometry relative="1" as="geometry" />
        </mxCell>
        <mxCell id="NtnKku0HyVxLoSLJdXPD-302" value="QuestionDto" style="edgeLabel;html=1;align=center;verticalAlign=middle;resizable=0;points=[];fontSize=15;" vertex="1" connectable="0" parent="NtnKku0HyVxLoSLJdXPD-244">
          <mxGeometry x="-0.127" relative="1" as="geometry">
            <mxPoint as="offset" />
          </mxGeometry>
        </mxCell>
        <mxCell id="NtnKku0HyVxLoSLJdXPD-246" value="&lt;span style=&quot;color: rgba(0 , 0 , 0 , 0) ; font-family: monospace ; font-size: 0px&quot;&gt;df&lt;/span&gt;" style="rounded=1;whiteSpace=wrap;html=1;sketch=0;fontSize=20;fontColor=#1D3557;strokeColor=#457B9D;strokeWidth=2;fillColor=#E8F0FC;" vertex="1" parent="1">
          <mxGeometry x="2810" y="635" width="184.13" height="80" as="geometry" />
        </mxCell>
        <mxCell id="NtnKku0HyVxLoSLJdXPD-247" value="문의내역 작성 페이지&lt;br&gt;/question/write&lt;br&gt;[GET]" style="text;html=1;strokeColor=none;fillColor=none;align=center;verticalAlign=middle;whiteSpace=wrap;rounded=0;fontSize=15;" vertex="1" parent="1">
          <mxGeometry x="2820" y="635" width="170" height="80" as="geometry" />
        </mxCell>
        <mxCell id="NtnKku0HyVxLoSLJdXPD-248" value="&lt;span style=&quot;color: rgba(0 , 0 , 0 , 0) ; font-family: monospace ; font-size: 0px&quot;&gt;df&lt;/span&gt;" style="rounded=1;whiteSpace=wrap;html=1;sketch=0;fontSize=20;strokeColor=#d79b00;strokeWidth=2;fillColor=#FFE6CC;" vertex="1" parent="1">
          <mxGeometry x="3202.69" y="635" width="184.13" height="80" as="geometry" />
        </mxCell>
        <mxCell id="NtnKku0HyVxLoSLJdXPD-249" style="edgeStyle=orthogonalEdgeStyle;rounded=1;orthogonalLoop=1;jettySize=auto;html=1;entryX=1;entryY=0.25;entryDx=0;entryDy=0;fontSize=15;strokeColor=#7EA6E0;" edge="1" parent="1" source="NtnKku0HyVxLoSLJdXPD-251" target="NtnKku0HyVxLoSLJdXPD-253">
          <mxGeometry relative="1" as="geometry">
            <Array as="points">
              <mxPoint x="3295" y="840" />
            </Array>
          </mxGeometry>
        </mxCell>
        <mxCell id="NtnKku0HyVxLoSLJdXPD-250" value="QuestionNo" style="edgeLabel;html=1;align=center;verticalAlign=middle;resizable=0;points=[];fontSize=15;" vertex="1" connectable="0" parent="NtnKku0HyVxLoSLJdXPD-249">
          <mxGeometry x="0.2535" y="1" relative="1" as="geometry">
            <mxPoint as="offset" />
          </mxGeometry>
        </mxCell>
        <mxCell id="NtnKku0HyVxLoSLJdXPD-251" value="문의내역 작성 처리&lt;br&gt;/question/write&lt;br&gt;[POST]" style="text;html=1;strokeColor=none;fillColor=none;align=center;verticalAlign=middle;whiteSpace=wrap;rounded=0;fontSize=15;" vertex="1" parent="1">
          <mxGeometry x="3211.25" y="635" width="167" height="80" as="geometry" />
        </mxCell>
        <mxCell id="NtnKku0HyVxLoSLJdXPD-301" style="edgeStyle=orthogonalEdgeStyle;rounded=1;orthogonalLoop=1;jettySize=auto;html=1;entryX=0.574;entryY=-0.012;entryDx=0;entryDy=0;entryPerimeter=0;fontSize=15;strokeColor=#7EA6E0;" edge="1" parent="1" source="NtnKku0HyVxLoSLJdXPD-253" target="NtnKku0HyVxLoSLJdXPD-299">
          <mxGeometry relative="1" as="geometry" />
        </mxCell>
        <mxCell id="NtnKku0HyVxLoSLJdXPD-253" value="&lt;span style=&quot;color: rgba(0 , 0 , 0 , 0) ; font-family: monospace ; font-size: 0px&quot;&gt;ㅇ&lt;/span&gt;" style="rounded=1;whiteSpace=wrap;html=1;sketch=0;fontSize=20;fontColor=#1D3557;strokeColor=#457B9D;strokeWidth=2;fillColor=#E8F0FC;" vertex="1" parent="1">
          <mxGeometry x="2820" y="820" width="184.13" height="80" as="geometry" />
        </mxCell>
        <mxCell id="NtnKku0HyVxLoSLJdXPD-298" style="edgeStyle=orthogonalEdgeStyle;rounded=1;orthogonalLoop=1;jettySize=auto;html=1;entryX=0.474;entryY=-0.018;entryDx=0;entryDy=0;entryPerimeter=0;fontSize=15;strokeColor=#7EA6E0;" edge="1" parent="1" source="NtnKku0HyVxLoSLJdXPD-255" target="NtnKku0HyVxLoSLJdXPD-273">
          <mxGeometry relative="1" as="geometry" />
        </mxCell>
        <mxCell id="NtnKku0HyVxLoSLJdXPD-328" style="edgeStyle=orthogonalEdgeStyle;rounded=1;orthogonalLoop=1;jettySize=auto;html=1;entryX=1;entryY=0.5;entryDx=0;entryDy=0;fontSize=15;strokeColor=#7EA6E0;" edge="1" parent="1" source="NtnKku0HyVxLoSLJdXPD-255" target="NtnKku0HyVxLoSLJdXPD-326">
          <mxGeometry relative="1" as="geometry">
            <Array as="points">
              <mxPoint x="2800" y="860" />
              <mxPoint x="2800" y="1238" />
            </Array>
          </mxGeometry>
        </mxCell>
        <mxCell id="NtnKku0HyVxLoSLJdXPD-331" style="edgeStyle=orthogonalEdgeStyle;rounded=1;orthogonalLoop=1;jettySize=auto;html=1;entryX=1;entryY=0.5;entryDx=0;entryDy=0;fontSize=15;strokeColor=#7EA6E0;" edge="1" parent="1" source="NtnKku0HyVxLoSLJdXPD-255" target="NtnKku0HyVxLoSLJdXPD-310">
          <mxGeometry relative="1" as="geometry">
            <Array as="points">
              <mxPoint x="2800" y="860" />
              <mxPoint x="2800" y="1120" />
            </Array>
          </mxGeometry>
        </mxCell>
        <mxCell id="NtnKku0HyVxLoSLJdXPD-336" value="questionNo" style="edgeLabel;html=1;align=center;verticalAlign=middle;resizable=0;points=[];fontSize=15;" vertex="1" connectable="0" parent="NtnKku0HyVxLoSLJdXPD-331">
          <mxGeometry x="0.6078" y="1" relative="1" as="geometry">
            <mxPoint as="offset" />
          </mxGeometry>
        </mxCell>
        <mxCell id="NtnKku0HyVxLoSLJdXPD-333" style="edgeStyle=orthogonalEdgeStyle;rounded=1;orthogonalLoop=1;jettySize=auto;html=1;entryX=1;entryY=0.5;entryDx=0;entryDy=0;fontSize=15;strokeColor=#7EA6E0;" edge="1" parent="1" source="NtnKku0HyVxLoSLJdXPD-255" target="NtnKku0HyVxLoSLJdXPD-327">
          <mxGeometry relative="1" as="geometry">
            <Array as="points">
              <mxPoint x="2800" y="860" />
              <mxPoint x="2800" y="1350" />
            </Array>
          </mxGeometry>
        </mxCell>
        <mxCell id="NtnKku0HyVxLoSLJdXPD-334" value="page&lt;br&gt;size&lt;br&gt;questionNo" style="edgeLabel;html=1;align=center;verticalAlign=middle;resizable=0;points=[];fontSize=15;" vertex="1" connectable="0" parent="NtnKku0HyVxLoSLJdXPD-333">
          <mxGeometry x="0.7396" y="-1" relative="1" as="geometry">
            <mxPoint as="offset" />
          </mxGeometry>
        </mxCell>
        <mxCell id="NtnKku0HyVxLoSLJdXPD-255" value="문의내역 상세 페이지&lt;br&gt;/question/detail&lt;br&gt;[GET]" style="text;html=1;strokeColor=none;fillColor=none;align=center;verticalAlign=middle;whiteSpace=wrap;rounded=0;fontSize=15;" vertex="1" parent="1">
          <mxGeometry x="2827.07" y="820" width="170" height="80" as="geometry" />
        </mxCell>
        <mxCell id="NtnKku0HyVxLoSLJdXPD-256" style="edgeStyle=orthogonalEdgeStyle;rounded=1;orthogonalLoop=1;jettySize=auto;html=1;entryX=0.55;entryY=1;entryDx=0;entryDy=0;entryPerimeter=0;fontSize=15;strokeColor=#7EA6E0;" edge="1" parent="1" source="NtnKku0HyVxLoSLJdXPD-258" target="NtnKku0HyVxLoSLJdXPD-263">
          <mxGeometry relative="1" as="geometry" />
        </mxCell>
        <mxCell id="NtnKku0HyVxLoSLJdXPD-257" value="QuestionDto" style="edgeLabel;html=1;align=center;verticalAlign=middle;resizable=0;points=[];fontSize=15;" vertex="1" connectable="0" parent="NtnKku0HyVxLoSLJdXPD-256">
          <mxGeometry x="0.2896" y="2" relative="1" as="geometry">
            <mxPoint as="offset" />
          </mxGeometry>
        </mxCell>
        <mxCell id="NtnKku0HyVxLoSLJdXPD-258" value="&lt;span style=&quot;color: rgba(0 , 0 , 0 , 0) ; font-family: monospace ; font-size: 0px&quot;&gt;ㅇ&lt;/span&gt;" style="rounded=1;whiteSpace=wrap;html=1;sketch=0;fontSize=20;fontColor=#1D3557;strokeColor=#457B9D;strokeWidth=2;fillColor=#E8F0FC;" vertex="1" parent="1">
          <mxGeometry x="2819.42" y="1130" width="184.13" height="80" as="geometry" />
        </mxCell>
        <mxCell id="NtnKku0HyVxLoSLJdXPD-259" value="문의내역 수정 페이지&lt;br&gt;/question/edit&lt;br&gt;[GET]" style="text;html=1;strokeColor=none;fillColor=none;align=center;verticalAlign=middle;whiteSpace=wrap;rounded=0;fontSize=15;" vertex="1" parent="1">
          <mxGeometry x="2830.54" y="1130" width="158.88" height="80" as="geometry" />
        </mxCell>
        <mxCell id="NtnKku0HyVxLoSLJdXPD-260" style="edgeStyle=orthogonalEdgeStyle;rounded=1;orthogonalLoop=1;jettySize=auto;html=1;fontSize=15;strokeColor=#7EA6E0;entryX=0.714;entryY=1.053;entryDx=0;entryDy=0;entryPerimeter=0;" edge="1" parent="1" source="NtnKku0HyVxLoSLJdXPD-262" target="NtnKku0HyVxLoSLJdXPD-255">
          <mxGeometry relative="1" as="geometry">
            <mxPoint x="2980" y="960" as="targetPoint" />
            <Array as="points">
              <mxPoint x="3180" y="890" />
              <mxPoint x="3180" y="950" />
              <mxPoint x="2948" y="950" />
            </Array>
          </mxGeometry>
        </mxCell>
        <mxCell id="NtnKku0HyVxLoSLJdXPD-261" value="QuestionNo" style="edgeLabel;html=1;align=center;verticalAlign=middle;resizable=0;points=[];fontSize=15;" vertex="1" connectable="0" parent="NtnKku0HyVxLoSLJdXPD-260">
          <mxGeometry x="-0.1809" y="1" relative="1" as="geometry">
            <mxPoint x="-46" y="-1" as="offset" />
          </mxGeometry>
        </mxCell>
        <mxCell id="NtnKku0HyVxLoSLJdXPD-262" value="&lt;span style=&quot;color: rgba(0 , 0 , 0 , 0) ; font-family: monospace ; font-size: 0px&quot;&gt;ㅇ&lt;/span&gt;" style="rounded=1;whiteSpace=wrap;html=1;sketch=0;fontSize=20;fontColor=#1D3557;strokeColor=#457B9D;strokeWidth=2;fillColor=#FFE6CC;" vertex="1" parent="1">
          <mxGeometry x="3204" y="850" width="184.13" height="80" as="geometry" />
        </mxCell>
        <mxCell id="NtnKku0HyVxLoSLJdXPD-263" value="문의내역 수정 처리&lt;br&gt;/question/edit&lt;br&gt;[POST]" style="text;html=1;strokeColor=none;fillColor=none;align=center;verticalAlign=middle;whiteSpace=wrap;rounded=0;fontSize=15;" vertex="1" parent="1">
          <mxGeometry x="3213.99" y="850" width="160" height="80" as="geometry" />
        </mxCell>
        <mxCell id="NtnKku0HyVxLoSLJdXPD-264" value="&lt;span style=&quot;color: rgba(0 , 0 , 0 , 0) ; font-family: monospace ; font-size: 0px&quot;&gt;ㅇ&lt;/span&gt;" style="rounded=1;whiteSpace=wrap;html=1;sketch=0;fontSize=20;fontColor=#1D3557;strokeColor=#457B9D;strokeWidth=2;fillColor=#E8F0FC;" vertex="1" parent="1">
          <mxGeometry x="2377" y="945" width="184.13" height="80" as="geometry" />
        </mxCell>
        <mxCell id="NtnKku0HyVxLoSLJdXPD-265" style="edgeStyle=orthogonalEdgeStyle;rounded=1;orthogonalLoop=1;jettySize=auto;html=1;entryX=0.39;entryY=0.988;entryDx=0;entryDy=0;entryPerimeter=0;fontSize=15;strokeColor=#7EA6E0;exitX=0;exitY=0.5;exitDx=0;exitDy=0;" edge="1" parent="1" source="NtnKku0HyVxLoSLJdXPD-264" target="NtnKku0HyVxLoSLJdXPD-242">
          <mxGeometry relative="1" as="geometry">
            <Array as="points">
              <mxPoint x="2332" y="985" />
            </Array>
            <mxPoint x="2370" y="985" as="sourcePoint" />
          </mxGeometry>
        </mxCell>
        <mxCell id="NtnKku0HyVxLoSLJdXPD-266" value="문의내역 삭제&lt;br&gt;/question/delete&lt;br&gt;[GET]" style="text;html=1;strokeColor=none;fillColor=none;align=center;verticalAlign=middle;whiteSpace=wrap;rounded=0;fontSize=15;" vertex="1" parent="1">
          <mxGeometry x="2387" y="945" width="160" height="80" as="geometry" />
        </mxCell>
        <mxCell id="NtnKku0HyVxLoSLJdXPD-270" value="" style="rounded=0;whiteSpace=wrap;html=1;fontSize=15;" vertex="1" parent="1">
          <mxGeometry x="2570" y="645" width="120" height="60" as="geometry" />
        </mxCell>
        <mxCell id="NtnKku0HyVxLoSLJdXPD-271" style="edgeStyle=orthogonalEdgeStyle;rounded=1;orthogonalLoop=1;jettySize=auto;html=1;entryX=0;entryY=0.5;entryDx=0;entryDy=0;fontSize=15;strokeColor=#7EA6E0;" edge="1" parent="1" source="NtnKku0HyVxLoSLJdXPD-272" target="NtnKku0HyVxLoSLJdXPD-246">
          <mxGeometry relative="1" as="geometry" />
        </mxCell>
        <mxCell id="NtnKku0HyVxLoSLJdXPD-272" value="LginInterceptor" style="text;html=1;strokeColor=none;fillColor=none;align=center;verticalAlign=middle;whiteSpace=wrap;rounded=0;fontSize=15;" vertex="1" parent="1">
          <mxGeometry x="2570" y="647.5" width="121.18" height="55" as="geometry" />
        </mxCell>
        <mxCell id="NtnKku0HyVxLoSLJdXPD-273" value="" style="rounded=0;whiteSpace=wrap;html=1;fontSize=15;" vertex="1" parent="1">
          <mxGeometry x="2845.9" y="977.5" width="139.1" height="60" as="geometry" />
        </mxCell>
        <mxCell id="NtnKku0HyVxLoSLJdXPD-274" style="edgeStyle=orthogonalEdgeStyle;rounded=1;orthogonalLoop=1;jettySize=auto;html=1;fontSize=15;strokeColor=#7EA6E0;" edge="1" parent="1" source="NtnKku0HyVxLoSLJdXPD-276">
          <mxGeometry relative="1" as="geometry">
            <mxPoint x="2912" y="1130" as="targetPoint" />
          </mxGeometry>
        </mxCell>
        <mxCell id="NtnKku0HyVxLoSLJdXPD-275" value="QuestionNo&lt;br&gt;Model" style="edgeLabel;html=1;align=center;verticalAlign=middle;resizable=0;points=[];fontSize=15;" vertex="1" connectable="0" parent="NtnKku0HyVxLoSLJdXPD-274">
          <mxGeometry x="-0.2654" relative="1" as="geometry">
            <mxPoint x="-1" y="9" as="offset" />
          </mxGeometry>
        </mxCell>
        <mxCell id="NtnKku0HyVxLoSLJdXPD-276" value="LginInterceptor,&lt;br&gt;QuestionInterceptor" style="text;html=1;strokeColor=none;fillColor=none;align=center;verticalAlign=middle;whiteSpace=wrap;rounded=0;fontSize=15;" vertex="1" parent="1">
          <mxGeometry x="2854.86" y="980" width="121.18" height="55" as="geometry" />
        </mxCell>
        <mxCell id="NtnKku0HyVxLoSLJdXPD-278" style="edgeStyle=orthogonalEdgeStyle;rounded=1;orthogonalLoop=1;jettySize=auto;html=1;entryX=1;entryY=0.5;entryDx=0;entryDy=0;fontSize=15;strokeColor=#7EA6E0;" edge="1" parent="1" target="NtnKku0HyVxLoSLJdXPD-264">
          <mxGeometry relative="1" as="geometry">
            <Array as="points">
              <mxPoint x="2700" y="985" />
            </Array>
            <mxPoint x="2700.028571428571" y="947.5" as="sourcePoint" />
          </mxGeometry>
        </mxCell>
        <mxCell id="NtnKku0HyVxLoSLJdXPD-279" value="QuestionNo" style="edgeLabel;html=1;align=center;verticalAlign=middle;resizable=0;points=[];fontSize=15;" vertex="1" connectable="0" parent="NtnKku0HyVxLoSLJdXPD-278">
          <mxGeometry x="0.3559" y="-1" relative="1" as="geometry">
            <mxPoint x="12" y="-1" as="offset" />
          </mxGeometry>
        </mxCell>
        <mxCell id="NtnKku0HyVxLoSLJdXPD-283" value="QUESTION&lt;br&gt;1:1문의 게시판" style="text;html=1;strokeColor=none;fillColor=none;align=center;verticalAlign=middle;whiteSpace=wrap;rounded=0;fontSize=15;" vertex="1" parent="1">
          <mxGeometry x="2211.12" y="585" width="118.88" height="30" as="geometry" />
        </mxCell>
        <mxCell id="NtnKku0HyVxLoSLJdXPD-284" style="edgeStyle=orthogonalEdgeStyle;rounded=1;orthogonalLoop=1;jettySize=auto;html=1;fontSize=15;strokeColor=#7EA6E0;entryX=0.5;entryY=0;entryDx=0;entryDy=0;" edge="1" parent="1" source="85etgImM21U0zFLn9ePR-3" target="NtnKku0HyVxLoSLJdXPD-242">
          <mxGeometry relative="1" as="geometry">
            <mxPoint x="2352" y="630" as="targetPoint" />
          </mxGeometry>
        </mxCell>
        <mxCell id="NtnKku0HyVxLoSLJdXPD-287" value="" style="rounded=0;whiteSpace=wrap;html=1;fontSize=15;" vertex="1" parent="1">
          <mxGeometry x="2560" y="757.5" width="141.18" height="60" as="geometry" />
        </mxCell>
        <mxCell id="NtnKku0HyVxLoSLJdXPD-292" style="edgeStyle=orthogonalEdgeStyle;rounded=1;orthogonalLoop=1;jettySize=auto;html=1;entryX=0.43;entryY=0.021;entryDx=0;entryDy=0;entryPerimeter=0;fontSize=15;strokeColor=#7EA6E0;" edge="1" parent="1" source="NtnKku0HyVxLoSLJdXPD-288" target="NtnKku0HyVxLoSLJdXPD-255">
          <mxGeometry relative="1" as="geometry" />
        </mxCell>
        <mxCell id="NtnKku0HyVxLoSLJdXPD-293" value="QuestionNo" style="edgeLabel;html=1;align=center;verticalAlign=middle;resizable=0;points=[];fontSize=15;" vertex="1" connectable="0" parent="NtnKku0HyVxLoSLJdXPD-292">
          <mxGeometry x="-0.3688" y="-3" relative="1" as="geometry">
            <mxPoint as="offset" />
          </mxGeometry>
        </mxCell>
        <mxCell id="NtnKku0HyVxLoSLJdXPD-288" value="QuestionInterceptor" style="text;html=1;strokeColor=none;fillColor=none;align=center;verticalAlign=middle;whiteSpace=wrap;rounded=0;fontSize=15;" vertex="1" parent="1">
          <mxGeometry x="2560" y="757.5" width="141.18" height="57.5" as="geometry" />
        </mxCell>
        <mxCell id="NtnKku0HyVxLoSLJdXPD-289" value="" style="rounded=0;whiteSpace=wrap;html=1;fontSize=15;" vertex="1" parent="1">
          <mxGeometry x="1950" y="680" width="141.18" height="60" as="geometry" />
        </mxCell>
        <mxCell id="NtnKku0HyVxLoSLJdXPD-290" value="QuestionInterceptor" style="text;html=1;strokeColor=none;fillColor=none;align=center;verticalAlign=middle;whiteSpace=wrap;rounded=0;fontSize=15;" vertex="1" parent="1">
          <mxGeometry x="1950" y="680" width="141.18" height="57.5" as="geometry" />
        </mxCell>
        <mxCell id="NtnKku0HyVxLoSLJdXPD-299" value="" style="rounded=0;whiteSpace=wrap;html=1;fontSize=15;" vertex="1" parent="1">
          <mxGeometry x="2630" y="887.5" width="139.1" height="60" as="geometry" />
        </mxCell>
        <mxCell id="NtnKku0HyVxLoSLJdXPD-300" value="LginInterceptor,&lt;br&gt;QuestionInterceptor" style="text;html=1;strokeColor=none;fillColor=none;align=center;verticalAlign=middle;whiteSpace=wrap;rounded=0;fontSize=15;" vertex="1" parent="1">
          <mxGeometry x="2638.96" y="890" width="121.18" height="55" as="geometry" />
        </mxCell>
        <mxCell id="NtnKku0HyVxLoSLJdXPD-330" style="edgeStyle=orthogonalEdgeStyle;rounded=1;orthogonalLoop=1;jettySize=auto;html=1;entryX=0.093;entryY=1.017;entryDx=0;entryDy=0;entryPerimeter=0;fontSize=15;strokeColor=#7EA6E0;" edge="1" parent="1" source="NtnKku0HyVxLoSLJdXPD-309" target="NtnKku0HyVxLoSLJdXPD-255">
          <mxGeometry relative="1" as="geometry">
            <Array as="points">
              <mxPoint x="2320" y="1238" />
              <mxPoint x="2320" y="1050" />
              <mxPoint x="2800" y="1050" />
              <mxPoint x="2800" y="930" />
              <mxPoint x="2843" y="930" />
            </Array>
          </mxGeometry>
        </mxCell>
        <mxCell id="NtnKku0HyVxLoSLJdXPD-309" value="댓글 쓰기(등록)&lt;br&gt;[POST]&lt;br&gt;/question_reply/insert" style="rounded=1;whiteSpace=wrap;html=1;fillColor=#ffe6cc;strokeColor=#d79b00;" vertex="1" parent="1">
          <mxGeometry x="2271.12" y="1210" width="120" height="60" as="geometry" />
        </mxCell>
        <mxCell id="NtnKku0HyVxLoSLJdXPD-332" style="edgeStyle=orthogonalEdgeStyle;rounded=1;orthogonalLoop=1;jettySize=auto;html=1;entryX=0.093;entryY=1.039;entryDx=0;entryDy=0;entryPerimeter=0;fontSize=15;strokeColor=#7EA6E0;" edge="1" parent="1" source="NtnKku0HyVxLoSLJdXPD-310" target="NtnKku0HyVxLoSLJdXPD-255">
          <mxGeometry relative="1" as="geometry">
            <Array as="points">
              <mxPoint x="2430" y="1120" />
              <mxPoint x="2430" y="1050" />
              <mxPoint x="2800" y="1050" />
              <mxPoint x="2800" y="930" />
              <mxPoint x="2843" y="930" />
            </Array>
          </mxGeometry>
        </mxCell>
        <mxCell id="NtnKku0HyVxLoSLJdXPD-310" value="댓글 삭제&lt;br&gt;[GET]&lt;br&gt;/question_reply/delete" style="rounded=1;whiteSpace=wrap;html=1;fillColor=#ffe6cc;strokeColor=#d79b00;" vertex="1" parent="1">
          <mxGeometry x="2460" y="1090" width="120" height="60" as="geometry" />
        </mxCell>
        <mxCell id="NtnKku0HyVxLoSLJdXPD-329" style="edgeStyle=orthogonalEdgeStyle;rounded=1;orthogonalLoop=1;jettySize=auto;html=1;entryX=1;entryY=0.5;entryDx=0;entryDy=0;fontSize=15;strokeColor=#7EA6E0;" edge="1" parent="1" source="NtnKku0HyVxLoSLJdXPD-326" target="NtnKku0HyVxLoSLJdXPD-309">
          <mxGeometry relative="1" as="geometry" />
        </mxCell>
        <mxCell id="NtnKku0HyVxLoSLJdXPD-335" value="questionReplyDto" style="edgeLabel;html=1;align=center;verticalAlign=middle;resizable=0;points=[];fontSize=15;" vertex="1" connectable="0" parent="NtnKku0HyVxLoSLJdXPD-329">
          <mxGeometry x="0.2593" relative="1" as="geometry">
            <mxPoint x="19" as="offset" />
          </mxGeometry>
        </mxCell>
        <mxCell id="NtnKku0HyVxLoSLJdXPD-326" value="댓글 쓰기(입력)&lt;br&gt;[GET]&lt;br&gt;/mybaby_reply/insert" style="whiteSpace=wrap;html=1;rounded=1;fillColor=#e1d5e7;strokeColor=#9673a6;" vertex="1" parent="1">
          <mxGeometry x="2580" y="1207.5" width="120" height="60" as="geometry" />
        </mxCell>
        <mxCell id="NtnKku0HyVxLoSLJdXPD-327" value="댓글 목록&lt;br&gt;[POST]&lt;br&gt;/mybaby_reply/more" style="rounded=1;whiteSpace=wrap;html=1;fillColor=#e1d5e7;strokeColor=#9673a6;" vertex="1" parent="1">
          <mxGeometry x="2460" y="1320" width="120" height="60" as="geometry" />
        </mxCell>
      </root>
    </mxGraphModel>
  </diagram>
</mxfile>
